Coordinates
version=1
nRows=10
nColumns=40
inDegrees=yes

Units are S.I. units (second, meters, Newtons, ...)
If the header above contains a line with 'inDegrees', this indicates whether rotational values are in degrees (yes) or radians (no).

endheader
time	pelvis_tilt	pelvis_list	pelvis_rotation	pelvis_tx	pelvis_ty	pelvis_tz	hip_flexion_r	hip_adduction_r	hip_rotation_r	knee_angle_r	knee_angle_r_beta	ankle_angle_r	subtalar_angle_r	mtp_angle_r	hip_flexion_l	hip_adduction_l	hip_rotation_l	knee_angle_l	knee_angle_l_beta	ankle_angle_l	subtalar_angle_l	mtp_angle_l	lumbar_extension	lumbar_bending	lumbar_rotation	arm_flex_r	arm_add_r	arm_rot_r	elbow_flex_r	pro_sup_r	wrist_flex_r	wrist_dev_r	arm_flex_l	arm_add_l	arm_rot_l	elbow_flex_l	pro_sup_l	wrist_flex_l	wrist_dev_l
      1.60000000	     -1.82557139	      2.49418205	      4.51950382	     -0.29343330	      0.99911297	     -0.75256055	      6.20993523	      1.51207029	     -6.57603533	     13.36372182	      0.23324095	     -7.01190291	      0.00000000	      0.00000000	     18.43388799	     -2.30315498	     -0.91216652	     81.64708688	      1.42501049	    -10.76205739	      0.00000000	      0.00000000	     -7.46484740	      0.22538274	     -6.35073418	     81.61873189	     -5.67403230	     28.50491762	     29.48361078	     80.24581336	      0.00000000	      0.00000000	     82.99911488	    -12.58303815	     39.63436197	     33.89724737	     79.93585241	      0.00000000	      0.00000000
      1.60500000	     -1.80722396	      2.43529195	      4.54877429	     -0.29346857	      0.99914490	     -0.75234144	      6.27762280	      1.57528931	     -6.74351773	     13.49352873	      0.23550650	     -7.23034216	      0.00000000	      0.00000000	     18.32585442	     -2.32066905	     -0.85980427	     81.76650273	      1.42709469	    -10.52939825	      0.00000000	      0.00000000	     -7.51242212	      0.27669724	     -6.37921869	     81.63373322	     -5.68897321	     28.60116592	     29.41918401	     80.09157261	      0.00000000	      0.00000000	     82.99595757	    -12.63232646	     39.58375005	     33.98532844	     80.04163571	      0.00000000	      0.00000000
      1.61000000	     -1.89354812	      2.42947809	      4.55309298	     -0.29350736	      0.99890577	     -0.75210211	      6.44866932	      1.57954256	     -6.75218526	     13.67752331	      0.23871782	     -7.06561970	      0.00000000	      0.00000000	     18.33173879	     -2.28933456	     -0.84028489	     81.93822811	      1.43009186	    -10.29932458	      0.00000000	      0.00000000	     -7.45329728	      0.25402416	     -6.39266224	     81.70599804	     -5.72578428	     28.99636295	     29.33014497	     79.42903145	      0.00000000	      0.00000000	     83.12592938	    -12.77457318	     40.19943733	     34.02354162	     79.54858964	      0.00000000	      0.00000000
      1.61500000	     -1.88154300	      2.40999476	      4.58316043	     -0.29355844	      0.99887769	     -0.75191728	      6.40831864	      1.62198064	     -6.72399564	     13.59853931	      0.23733928	     -7.05721755	      0.00000000	      0.00000000	     18.23445561	     -2.26530434	     -0.79889078	     82.05898512	      1.43219947	    -10.00926759	      0.00000000	      0.00000000	     -7.50502200	      0.26605868	     -6.42231635	     81.70862561	     -5.71115752	     28.72147367	     29.30840710	     80.03456577	      0.00000000	      0.00000000	     83.08262628	    -12.77794536	     39.83649897	     34.12925324	     80.21543802	      0.00000000	      0.00000000
      1.62000000	     -1.90204197	      2.25553949	      4.57618645	     -0.29357836	      0.99872982	     -0.75159077	      6.33283709	      1.84426802	     -6.39570597	     13.31790692	      0.23244133	     -7.27675389	      0.00000000	      0.00000000	     18.19638057	     -2.43833175	     -0.79164454	     82.23824253	      1.43532810	     -9.66698647	      0.00000000	      0.00000000	     -7.49435541	      0.42325577	     -6.38048563	     81.81678767	     -5.81257284	     29.80166019	     29.57201187	     74.59952080	      0.00000000	      0.00000000	     83.15108393	    -12.85088579	     40.73725655	     34.23605639	     74.73868499	      0.00000000	      0.00000000
      1.62500000	     -1.86541294	      2.26070130	      4.62648407	     -0.29358984	      0.99874188	     -0.75143414	      6.28704296	      1.85136698	     -6.46121841	     13.30537636	      0.23222263	     -7.26796202	      0.00000000	      0.00000000	     18.04749402	     -2.37843908	     -0.73967131	     82.28981593	      1.43622823	     -9.36280183	      0.00000000	      0.00000000	     -7.56713495	      0.40748897	     -6.44747373	     81.86588599	     -5.87170602	     30.84127840	     29.37763952	     72.26983011	      0.00000000	      0.00000000	     83.21798134	    -13.06208525	     41.49508831	     34.52174736	     72.47326477	      0.00000000	      0.00000000
      1.63000000	     -1.82235116	      2.31291392	      4.67753612	     -0.29359933	      0.99873209	     -0.75133334	      6.32568394	      1.78717208	     -6.58935753	     13.52421343	      0.23604205	     -7.05861721	      0.00000000	      0.00000000	     17.87739468	     -2.26018601	     -0.68842568	     82.35864791	      1.43742957	     -8.86866843	      0.00000000	      0.00000000	     -7.64912780	      0.33943734	     -6.45744590	     81.90601373	     -5.80790020	     30.00220072	     29.37339688	     71.84138561	      0.00000000	      0.00000000	     83.23374914	    -12.87294596	     41.13673321	     34.31670845	     72.16147966	      0.00000000	      0.00000000
      1.63500000	     -1.92579719	      2.40560117	      4.70623335	     -0.29374022	      0.99862863	     -0.75119636	      6.57271327	      1.65807808	     -6.71543496	     13.82242627	      0.24124685	     -6.95956835	      0.00000000	      0.00000000	     17.92122202	     -2.09832967	     -0.67570063	     82.41184668	      1.43835807	     -8.93131012	      0.00000000	      0.00000000	     -7.59500220	      0.19396830	     -6.48637094	     81.80266480	     -5.80842224	     28.32000165	     29.39888232	     80.37407436	      0.00000000	      0.00000000	     83.29434973	    -12.89815086	     40.25665991	     34.17049504	     80.31587822	      0.00000000	      0.00000000
      1.64000000	     -1.95967754	      2.35685689	      4.75035026	     -0.29370262	      0.99851077	     -0.75103790	      6.54583431	      1.72934204	     -6.66078628	     13.69334427	      0.23899394	     -6.93414511	      0.00000000	      0.00000000	     17.86130800	     -2.09921752	     -0.61845077	     82.50552446	      1.43999305	     -8.39683785	      0.00000000	      0.00000000	     -7.56571951	      0.24269815	     -6.52071058	     81.81174143	     -5.68224502	     28.25047271	     29.11520850	     78.96922573	      0.00000000	      0.00000000	     83.20677580	    -12.77171956	     39.78554870	     34.08461991	     78.94522577	      0.00000000	      0.00000000
      1.64500000	     -1.96953806	      2.40224500	      4.76670830	     -0.29382910	      0.99840506	     -0.75088848	      6.67779682	      1.66124355	     -6.78902299	     13.95043350	      0.24348100	     -6.83604735	      0.00000000	      0.00000000	     17.81166368	     -2.00887167	     -0.59212706	     82.57403863	      1.44118885	     -8.37891170	      0.00000000	      0.00000000	     -7.61758116	      0.16832823	     -6.49792348	     81.98793204	     -6.03708557	     29.51798775	     29.28557637	     78.05169199	      0.00000000	      0.00000000	     83.52819018	    -13.08950156	     41.36063231	     34.41146293	     78.15011370	      0.00000000	      0.00000000
